HIERARCHY
ROOT Hips
{
	OFFSET 0.000000 0.000000 0.000000
	CHANNELS 6 Xposition Yposition Zposition Xrotation Yrotation Zrotation
	JOINT Thigh.L
	{
		OFFSET 0.054128 0.030967 -0.092432
		CHANNELS 3 Xrotation Yrotation Zrotation
		JOINT Shin.L
		{
			OFFSET 0.053326 0.016455 -0.413154
			CHANNELS 3 Xrotation Yrotation Zrotation
			JOINT Foot.L
			{
				OFFSET -0.041126 0.033607 -0.432082
				CHANNELS 3 Xrotation Yrotation Zrotation
				JOINT Toe.L
				{
					OFFSET 0.044577 -0.118931 -0.063729
					CHANNELS 3 Xrotation Yrotation Zrotation
					End Site
					{
						OFFSET 0.000000 0.050000 0.000000
					}
				}
			}
		}
	}
	JOINT Thigh.R
	{
		OFFSET -0.059414 0.028387 -0.102775
		CHANNELS 3 Xrotation Yrotation Zrotation
		JOINT Shin.R
		{
			OFFSET -0.042707 0.021781 -0.396856
			CHANNELS 3 Xrotation Yrotation Zrotation
			JOINT Foot.R
			{
				OFFSET 0.015332 0.022142 -0.441027
				CHANNELS 3 Xrotation Yrotation Zrotation
				JOINT Toe.R
				{
					OFFSET -0.036943 -0.119673 -0.063737
					CHANNELS 3 Xrotation Yrotation Zrotation
					End Site
					{
						OFFSET 0.000000 0.050000 0.000000
					}
				}
			}
		}
	}
	JOINT Spine
	{
		OFFSET -0.001997 0.018700 0.109708
		CHANNELS 3 Xrotation Yrotation Zrotation
		JOINT Spine.2
		{
			OFFSET 0.006589 0.002470 0.135545
			CHANNELS 3 Xrotation Yrotation Zrotation
			JOINT Chest
			{
				OFFSET -0.010346 -0.022937 0.049681
				CHANNELS 3 Xrotation Yrotation Zrotation
				JOINT Neck
				{
					OFFSET -0.009284 0.028284 0.164457
					CHANNELS 3 Xrotation Yrotation Zrotation
					JOINT Head
					{
						OFFSET 0.022026 -0.023653 0.169119
						CHANNELS 3 Xrotation Yrotation Zrotation
						End Site
						{
							OFFSET 0.000000 0.050000 0.000000
						}
					}
				}
				JOINT Clavicle.L
				{
					OFFSET 0.043155 0.007951 0.084048
					CHANNELS 3 Xrotation Yrotation Zrotation
					JOINT UpperArm.L
					{
						OFFSET 0.105465 0.014774 0.061565
						CHANNELS 3 Xrotation Yrotation Zrotation
						JOINT ForeArm.L
						{
							OFFSET 0.262788 0.035124 -0.075310
							CHANNELS 3 Xrotation Yrotation Zrotation
							JOINT Hand.L
							{
								OFFSET 0.261026 0.006485 0.021088
								CHANNELS 3 Xrotation Yrotation Zrotation
								JOINT Thumb1.L
								{
									OFFSET 0.154574 0.002971 0.009660
									CHANNELS 3 Xrotation Yrotation Zrotation
									JOINT Thumb2.L
									{
										OFFSET 0.029893 0.000743 0.002415
										CHANNELS 3 Xrotation Yrotation Zrotation
										End Site
										{
											OFFSET 0.024911 0.000619 0.002013
										}
									}
								}
								JOINT Index1.L
								{
									OFFSET 0.137574 0.002971 0.009660
									CHANNELS 3 Xrotation Yrotation Zrotation
									JOINT Index2.L
									{
										OFFSET 0.029893 0.000743 0.002415
										CHANNELS 3 Xrotation Yrotation Zrotation
										JOINT Index3.L
										{
											OFFSET 0.021922 0.000545 0.001771
											CHANNELS 3 Xrotation Yrotation Zrotation
											End Site
											{
												OFFSET 0.017936 0.000446 0.001449
											}
										}
									}
								}
								JOINT Middle1.L
								{
									OFFSET 0.119574 0.002971 0.009660
									CHANNELS 3 Xrotation Yrotation Zrotation
									JOINT Middle2.L
									{
										OFFSET 0.030890 0.000767 0.002496
										CHANNELS 3 Xrotation Yrotation Zrotation
										JOINT Middle3.L
										{
											OFFSET 0.021922 0.000545 0.001771
											CHANNELS 3 Xrotation Yrotation Zrotation
											End Site
											{
												OFFSET 0.017936 0.000446 0.001449
											}
										}
									}
								}
								JOINT Ring1.L
								{
									OFFSET 0.101574 0.002971 0.009660
									CHANNELS 3 Xrotation Yrotation Zrotation
									JOINT Ring2.L
									{
										OFFSET 0.028897 0.000718 0.002335
										CHANNELS 3 Xrotation Yrotation Zrotation
										JOINT Ring3.L
										{
											OFFSET 0.019929 0.000495 0.001610
											CHANNELS 3 Xrotation Yrotation Zrotation
											End Site
											{
												OFFSET 0.016940 0.000421 0.001369
											}
										}
									}
								}
								JOINT Pinky1.L
								{
									OFFSET 0.085574 0.002971 0.009660
									CHANNELS 3 Xrotation Yrotation Zrotation
									JOINT Pinky2.L
									{
										OFFSET 0.023915 0.000594 0.001932
										CHANNELS 3 Xrotation Yrotation Zrotation
										JOINT Pinky3.L
										{
											OFFSET 0.016940 0.000421 0.001369
											CHANNELS 3 Xrotation Yrotation Zrotation
											End Site
											{
												OFFSET 0.013950 0.000347 0.001127
											}
										}
									}
								}
							}
						}
					}
				}
				JOINT Clavicle.R
				{
					OFFSET -0.041087 0.014090 0.083489
					CHANNELS 3 Xrotation Yrotation Zrotation
					JOINT UpperArm.R
					{
						OFFSET -0.091114 0.009691 0.057215
						CHANNELS 3 Xrotation Yrotation Zrotation
						JOINT ForeArm.R
						{
							OFFSET -0.278548 0.022602 -0.042677
							CHANNELS 3 Xrotation Yrotation Zrotation
							JOINT Hand.R
							{
								OFFSET -0.257833 0.018931 -0.003475
								CHANNELS 3 Xrotation Yrotation Zrotation
								JOINT Thumb1.R
								{
									OFFSET -0.154667 0.008786 -0.001613
									CHANNELS 3 Xrotation Yrotation Zrotation
									JOINT Thumb2.R
									{
										OFFSET -0.029917 0.002197 -0.000403
										CHANNELS 3 Xrotation Yrotation Zrotation
										End Site
										{
											OFFSET -0.024931 0.001830 -0.000336
										}
									}
								}
								JOINT Index1.R
								{
									OFFSET -0.137667 0.008786 -0.001613
									CHANNELS 3 Xrotation Yrotation Zrotation
									JOINT Index2.R
									{
										OFFSET -0.029917 0.002197 -0.000403
										CHANNELS 3 Xrotation Yrotation Zrotation
										JOINT Index3.R
										{
											OFFSET -0.021939 0.001611 -0.000296
											CHANNELS 3 Xrotation Yrotation Zrotation
											End Site
											{
												OFFSET -0.017950 0.001318 -0.000242
											}
										}
									}
								}
								JOINT Middle1.R
								{
									OFFSET -0.119667 0.008786 -0.001613
									CHANNELS 3 Xrotation Yrotation Zrotation
									JOINT Middle2.R
									{
										OFFSET -0.030914 0.002270 -0.000417
										CHANNELS 3 Xrotation Yrotation Zrotation
										JOINT Middle3.R
										{
											OFFSET -0.021939 0.001611 -0.000296
											CHANNELS 3 Xrotation Yrotation Zrotation
											End Site
											{
												OFFSET -0.017950 0.001318 -0.000242
											}
										}
									}
								}
								JOINT Ring1.R
								{
									OFFSET -0.101667 0.008786 -0.001613
									CHANNELS 3 Xrotation Yrotation Zrotation
									JOINT Ring2.R
									{
										OFFSET -0.028920 0.002123 -0.000390
										CHANNELS 3 Xrotation Yrotation Zrotation
										JOINT Ring3.R
										{
											OFFSET -0.019945 0.001464 -0.000269
											CHANNELS 3 Xrotation Yrotation Zrotation
											End Site
											{
												OFFSET -0.016953 0.001245 -0.000229
											}
										}
									}
								}
								JOINT Pinky1.R
								{
									OFFSET -0.085667 0.008786 -0.001613
									CHANNELS 3 Xrotation Yrotation Zrotation
									JOINT Pinky2.R
									{
										OFFSET -0.023933 0.001757 -0.000323
										CHANNELS 3 Xrotation Yrotation Zrotation
										JOINT Pinky3.R
										{
											OFFSET -0.016953 0.001245 -0.000229
											CHANNELS 3 Xrotation Yrotation Zrotation
											End Site
											{
												OFFSET -0.013961 0.001025 -0.000188
											}
										}
									}
								}
							}
						}
					}
				}
			}
		}
	}
}
MOTION
Frames: 5
Frame Time: 0.03333333
-0.005484 -0.044726 1.089207 -6.620252 1.348617 0.420355 3.648382 -0.039274 2.696653 4.649715 0.886490 -0.535168 -1.171271 4.810720 10.124173 3.046681 -2.629553 0.031417 -0.009907 -0.245271 -2.963891 9.720842 -0.532396 -6.104481 2.474017 -4.221587 -6.905531 1.150740 -0.648337 -1.023194 3.067342 1.847296 2.194033 13.243266 -5.585271 -3.087876 -13.170971 2.461652 1.448657 13.391584 3.114147 -0.710908 0.036036 -3.800604 3.741144 10.664130 20.182446 1.322903 18.381667 48.339250 -22.025440 13.250104 -3.575820 -26.897592 0.917233 4.395216 -11.888527 0.000000 0.000000 0.000000 0.000000 0.000000 0.000000 0.000000 0.000000 0.000000 0.000000 0.000000 0.000000 0.000000 0.000000 0.000000 0.000000 0.000000 0.000000 0.000000 0.000000 0.000000 0.000000 0.000000 0.000000 0.000000 0.000000 0.000000 0.000000 0.000000 0.000000 0.000000 0.000000 0.000000 0.000000 0.000000 0.000000 0.000000 0.000000 0.000000 0.000000 0.000000 0.000000 8.940827 -10.730271 3.040344 26.912782 -54.605014 24.815006 14.132180 3.718436 27.332911 -0.179675 -4.633399 6.522658 0.000000 0.000000 0.000000 0.000000 0.000000 0.000000 0.000000 0.000000 0.000000 0.000000 0.000000 0.000000 0.000000 0.000000 0.000000 0.000000 0.000000 0.000000 0.000000 0.000000 0.000000 0.000000 0.000000 0.000000 0.000000 0.000000 0.000000 0.000000 0.000000 0.000000 0.000000 0.000000 0.000000 0.000000 0.000000 0.000000 0.000000 0.000000 0.000000 0.000000 0.000000 0.000000
-0.004656 -0.044172 1.089189 -6.651757 1.374938 0.253995 3.871255 0.072061 2.671201 4.365932 0.654325 -0.543795 -1.133265 4.725098 10.270220 3.098047 -2.643040 0.053587 0.096005 -0.333395 -2.955952 9.658611 -0.509907 -6.089904 2.417525 -4.160508 -6.832949 1.185961 -0.694418 -1.034833 3.077997 1.813923 2.197812 13.238028 -5.576358 -3.083662 -13.142452 2.456242 1.469927 13.274654 3.178572 -0.582247 -0.073734 -3.790655 3.975735 10.601426 20.188732 1.265777 18.343169 48.453290 -22.003660 13.179732 -3.538457 -26.339867 1.004532 4.650040 -11.816154 0.000000 0.000000 0.000000 0.000000 0.000000 0.000000 0.000000 0.000000 0.000000 0.000000 0.000000 0.000000 0.000000 0.000000 0.000000 0.000000 0.000000 0.000000 0.000000 0.000000 0.000000 0.000000 0.000000 0.000000 0.000000 0.000000 0.000000 0.000000 0.000000 0.000000 0.000000 0.000000 0.000000 0.000000 0.000000 0.000000 0.000000 0.000000 0.000000 0.000000 0.000000 0.000000 8.888400 -10.654476 3.115408 27.187945 -54.752354 25.093914 14.139791 3.749720 27.182024 -0.166744 -4.790093 6.553057 0.000000 0.000000 0.000000 0.000000 0.000000 0.000000 0.000000 0.000000 0.000000 0.000000 0.000000 0.000000 0.000000 0.000000 0.000000 0.000000 0.000000 0.000000 0.000000 0.000000 0.000000 0.000000 0.000000 0.000000 0.000000 0.000000 0.000000 0.000000 0.000000 0.000000 0.000000 0.000000 0.000000 0.000000 0.000000 0.000000 0.000000 0.000000 0.000000 0.000000 0.000000 0.000000
-0.003590 -0.044558 1.089120 -6.728305 1.346185 0.254467 3.951721 0.112826 2.598569 4.340410 0.613783 -0.720837 -1.112132 4.619593 10.300265 3.128613 -2.647180 0.082373 0.177488 -0.345402 -2.982031 9.696774 -0.547236 -6.041710 2.322477 -4.030196 -6.833425 1.189850 -0.739856 -1.054845 3.109877 1.761849 2.222684 13.304698 -5.610226 -3.110969 -13.146164 2.437259 1.457769 13.277611 3.236709 -0.532347 -0.121611 -3.807424 4.191772 10.545289 20.277533 1.183088 18.350657 48.474241 -21.974208 13.042183 -3.525459 -26.143739 1.132115 4.895578 -11.790647 0.000000 0.000000 0.000000 0.000000 0.000000 0.000000 0.000000 0.000000 0.000000 0.000000 0.000000 0.000000 0.000000 0.000000 0.000000 0.000000 0.000000 0.000000 0.000000 0.000000 0.000000 0.000000 0.000000 0.000000 0.000000 0.000000 0.000000 0.000000 0.000000 0.000000 0.000000 0.000000 0.000000 0.000000 0.000000 0.000000 0.000000 0.000000 0.000000 0.000000 0.000000 0.000000 8.866954 -10.701227 3.234891 27.154865 -54.683774 25.008518 14.201859 3.714700 27.270268 0.042094 -4.977228 6.556344 0.000000 0.000000 0.000000 0.000000 0.000000 0.000000 0.000000 0.000000 0.000000 0.000000 0.000000 0.000000 0.000000 0.000000 0.000000 0.000000 0.000000 0.000000 0.000000 0.000000 0.000000 0.000000 0.000000 0.000000 0.000000 0.000000 0.000000 0.000000 0.000000 0.000000 0.000000 0.000000 0.000000 0.000000 0.000000 0.000000 0.000000 0.000000 0.000000 0.000000 0.000000 0.000000
-0.003420 -0.044518 1.088949 -6.758989 1.338788 0.237732 3.977320 0.159332 2.543461 4.349835 0.611246 -0.805932 -1.135202 4.554733 10.284610 3.144715 -2.628920 0.086959 0.248312 -0.347841 -2.971699 9.679496 -0.550168 -5.993250 2.239916 -3.981911 -6.824718 1.199825 -0.742461 -1.056213 3.117802 1.744265 2.243935 13.350110 -5.620572 -3.135221 -13.178723 2.434191 1.460169 13.273128 3.289598 -0.505729 -0.191293 -3.823020 4.336200 10.531993 20.359705 1.112567 18.352156 48.481761 -21.900807 12.935243 -3.492643 -26.062289 1.194484 5.054567 -11.804013 0.000000 0.000000 0.000000 0.000000 0.000000 0.000000 0.000000 0.000000 0.000000 0.000000 0.000000 0.000000 0.000000 0.000000 0.000000 0.000000 0.000000 0.000000 0.000000 0.000000 0.000000 0.000000 0.000000 0.000000 0.000000 0.000000 0.000000 0.000000 0.000000 0.000000 0.000000 0.000000 0.000000 0.000000 0.000000 0.000000 0.000000 0.000000 0.000000 0.000000 0.000000 0.000000 8.887570 -10.725528 3.296681 27.151627 -54.634029 24.967082 14.255242 3.722518 27.319952 0.181168 -5.090195 6.564403 0.000000 0.000000 0.000000 0.000000 0.000000 0.000000 0.000000 0.000000 0.000000 0.000000 0.000000 0.000000 0.000000 0.000000 0.000000 0.000000 0.000000 0.000000 0.000000 0.000000 0.000000 0.000000 0.000000 0.000000 0.000000 0.000000 0.000000 0.000000 0.000000 0.000000 0.000000 0.000000 0.000000 0.000000 0.000000 0.000000 0.000000 0.000000 0.000000 0.000000 0.000000 0.000000
-0.003241 -0.044382 1.088697 -6.748634 1.307150 0.231148 3.860008 0.184525 2.488994 4.543896 0.682580 -0.843935 -1.196282 4.537648 10.226946 3.112751 -2.634832 0.071509 0.224012 -0.327475 -2.940004 9.727861 -0.533416 -6.019928 2.149171 -3.989447 -6.833738 1.211201 -0.725620 -1.044838 3.133598 1.744011 2.257142 13.361876 -5.609043 -3.161983 -13.172148 2.426728 1.466317 13.192942 3.337471 -0.454456 -0.226526 -3.814844 4.424666 10.532505 20.374285 1.047276 18.406057 48.497885 -21.884488 12.865184 -3.475625 -26.072129 1.200541 5.110960 -11.831977 0.000000 0.000000 0.000000 0.000000 0.000000 0.000000 0.000000 0.000000 0.000000 0.000000 0.000000 0.000000 0.000000 0.000000 0.000000 0.000000 0.000000 0.000000 0.000000 0.000000 0.000000 0.000000 0.000000 0.000000 0.000000 0.000000 0.000000 0.000000 0.000000 0.000000 0.000000 0.000000 0.000000 0.000000 0.000000 0.000000 0.000000 0.000000 0.000000 0.000000 0.000000 0.000000 8.878640 -10.709063 3.334972 27.179988 -54.588785 24.981446 14.349582 3.701492 27.363850 0.231477 -5.106354 6.594687 0.000000 0.000000 0.000000 0.000000 0.000000 0.000000 0.000000 0.000000 0.000000 0.000000 0.000000 0.000000 0.000000 0.000000 0.000000 0.000000 0.000000 0.000000 0.000000 0.000000 0.000000 0.000000 0.000000 0.000000 0.000000 0.000000 0.000000 0.000000 0.000000 0.000000 0.000000 0.000000 0.000000 0.000000 0.000000 0.000000 0.000000 0.000000 0.000000 0.000000 0.000000 0.000000
